<svg width="16" height="16" viewBox="0 0 16 16" fill="none" xmlns="http://www.w3.org/2000/svg">
<path d="M2 5.33333H10.8C11.9201 5.33333 12.4802 5.33333 12.908 5.55132C13.2843 5.74306 13.5903 6.04902 13.782 6.42535C14 6.85317 14 7.41322 14 8.53333V10.1333C14 11.2534 14 11.8135 13.782 12.2413C13.5903 12.6176 13.2843 12.9236 12.908 13.1153C12.4802 13.3333 11.9201 13.3333 10.8 13.3333H5.2C4.07989 13.3333 3.51984 13.3333 3.09202 13.1153C2.71569 12.9236 2.40973 12.6176 2.21799 12.2413C2 11.8135 2 11.2534 2 10.1333V5.33333Z" fill="#42A5F5"/>
<path d="M2 5.33333C2 5.33333 2 5.33333 2 5.33333C2 4.22876 2.89543 3.33333 4 3.33333C4 3.33333 4 3.33333 4 3.33333H5.29983C5.82985 3.33333 6.09486 3.33333 6.34316 3.39811C6.5208 3.44446 6.69122 3.51505 6.84961 3.60789C7.071 3.73766 7.25839 3.92505 7.63317 4.29983L8.66667 5.33333H2V5.33333Z" fill="#42A5F5"/>
<path d="M6.33333 11L9.66666 7.66667M9.66666 11L6.33333 7.66667" stroke="#42A5F5"/>
<path d="M4.71104 12.2083C4.66445 12.5293 4.78926 13.2729 4.90131 13.2734C5.02064 13.3826 5.4572 13.1994 5.85736 12.9362L6.45687 12.5718L6.8819 12.2868L7.3978 11.8622L7.67639 11.672L8.32392 11.1664L8.7536 10.7529L9.17004 10.3103L10.2101 9.23252L10.8053 8.19582L11.0029 7.87405L11.1295 7.53542L11.1736 7.10799C11.0632 7.02297 10.9938 6.98179 10.8513 6.92472C10.7337 6.90792 10.4816 6.86844 10.4816 6.86844C10.4816 6.86844 10.2959 6.86172 10.0801 6.89681L9.74904 6.95633L9.2884 7.03977C8.89762 7.16863 8.72418 7.17432 8.46451 7.28166L7.54717 7.73468C7.15682 7.98285 6.94711 8.1359 6.60573 8.45855C6.18371 8.83979 5.9759 9.07407 5.65189 9.52518C5.3511 10.0185 5.20496 10.3194 4.98711 10.9026C4.95434 10.9135 4.75764 11.8872 4.71104 12.2083Z" fill="#C7EBFF" fill-opacity="0.65" stroke="#013076" stroke-width="0.3" stroke-linecap="round" stroke-linejoin="round"/>
<path d="M5.69719 13.0501L5.69612 13.0447C6.0038 12.8414 6.03288 12.8281 6.3686 12.64C6.6661 12.4442 6.58441 12.4827 6.88191 12.2868L7.383 11.8759L7.9999 11.4263L8.69389 10.8222C9.01088 10.419 9.21496 10.282 9.39254 10.0896L10.1963 9.21771C10.4694 8.78427 10.6068 8.54613 10.8503 8.14022C11.0276 7.77221 11.1509 7.73639 11.1736 7.10798C11.5101 7.16709 11.7225 7.3031 11.908 7.36337C12.2104 7.47685 12.6229 7.60912 12.6567 7.61927C12.7471 7.64642 13.4242 7.92964 13.7404 8.10181C14.0158 8.26537 14.1547 8.38453 14.3941 8.61169C14.691 8.88027 14.7884 8.99454 14.9452 9.18936L15.3504 9.84756L15.6398 10.5445C15.7859 11.0274 15.8044 11.1974 15.8342 11.4953C15.8286 11.8469 15.8153 12.0437 15.8016 12.3951C15.812 12.6587 15.7992 12.8929 15.7825 12.9235C15.7658 12.9541 15.6132 13.5035 15.524 13.7436C15.4348 13.9837 15.1172 14.337 15.0871 14.357C14.8208 14.6319 14.6633 14.7369 14.4247 14.8765C14.1862 15.0161 13.7167 15.0797 13.7167 15.0797C13.7167 15.0797 13.2315 15.2742 12.8627 15.3634C12.3037 15.4859 12.0247 15.4917 11.5124 15.529C11.0486 15.5735 10.7922 15.5766 10.3387 15.5581C9.88193 15.5339 9.63069 15.5297 9.14159 15.4432C8.55933 15.3601 8.21707 15.2775 7.55545 15.014C7.22415 14.8013 7.0493 14.7025 6.7753 14.4423C6.46944 14.1856 6.2927 13.9978 5.97485 13.6411C5.77741 13.4503 5.74838 13.3054 5.69719 13.0501Z" fill="#C7EBFF" fill-opacity="0.65" stroke="#013076" stroke-width="0.3" stroke-linecap="round" stroke-linejoin="round"/>
<path d="M10.2757 12.953L10.4629 12.9169L7.85619 12.2363" stroke="#013076" stroke-width="0.3" stroke-linecap="round" stroke-linejoin="round"/>
<path d="M11.8758 12.9967L11.7508 12.892L14.3755 12.2863" stroke="#013076" stroke-width="0.3" stroke-linecap="round" stroke-linejoin="round"/>
<path d="M4.92223 11.1147C4.94906 11.1573 5.06703 11.4248 5.24518 11.5975C5.42333 11.7702 5.89681 11.621 5.89681 11.621C5.9335 11.6224 6.20092 11.4873 6.34346 11.4294C6.48601 11.3715 6.5596 11.7282 6.5596 11.7282C6.5596 11.7282 6.60408 11.9324 6.63258 12.0633" stroke="#013076" stroke-width="0.3" stroke-linecap="round" stroke-linejoin="round"/>
<path d="M5.35933 10.1009C5.43514 10.0815 5.57312 10.0616 5.64892 9.92318C5.72472 9.78476 5.65969 9.62556 5.65969 9.62556" stroke="#013076" stroke-width="0.3" stroke-linecap="round" stroke-linejoin="round"/>
<path d="M5.7847 10.2021C5.98465 10.2094 6.1364 10.2175 6.27546 10.0769C6.33483 10.0168 6.3954 9.9239 6.41485 9.7816C6.4343 9.6393 6.4257 9.48168 6.4257 9.48168C6.69481 9.5656 6.85379 9.62818 7.10504 9.67787C7.6049 9.69596 8.12939 9.42893 8.12939 9.42893C8.12939 9.42893 8.634 9.136 8.89376 8.85597C8.9451 8.80062 9.1562 8.32204 9.15982 8.22207C9.16343 8.12209 9.11911 7.98075 9.06055 7.80375" stroke="#013076" stroke-width="0.3" stroke-linecap="round" stroke-linejoin="round"/>
<path d="M6.39722 11.4541C6.31286 11.6081 6.25799 11.6905 6.13821 11.8261C6.03929 11.9284 5.96458 11.9897 5.744 12.1169" stroke="#013076" stroke-width="0.3" stroke-linecap="round" stroke-linejoin="round"/>
<path d="M6.38435 10.6242C6.47197 10.6721 6.52407 10.7151 6.60872 10.7468C6.69338 10.7784 6.82295 10.7545 6.82295 10.7545C6.96076 10.7127 7.00868 10.6615 7.08727 10.5639C7.08727 10.5639 7.42123 10.681 7.64116 10.6697C7.99266 10.6516 8.45594 10.2845 8.45594 10.2845" stroke="#013076" stroke-width="0.3" stroke-linecap="round" stroke-linejoin="round"/>
<path d="M4.71104 12.2083C4.66445 12.5293 4.78926 13.2729 4.90131 13.2734C5.02064 13.3826 5.4572 13.1994 5.85736 12.9362L6.45687 12.5718L6.8819 12.2868L7.3978 11.8622L7.67639 11.672L8.32392 11.1664L8.7536 10.7529L9.17004 10.3103L10.2101 9.23252L10.8053 8.19582L11.0029 7.87405L11.1295 7.53542L11.1736 7.10799C11.0632 7.02297 10.9938 6.98179 10.8513 6.92472C10.7337 6.90792 10.4816 6.86844 10.4816 6.86844C10.4816 6.86844 10.2959 6.86172 10.0801 6.89681L9.74904 6.95633L9.2884 7.03977C8.89762 7.16863 8.72418 7.17432 8.46451 7.28166L7.54717 7.73468C7.15682 7.98285 6.94711 8.1359 6.60573 8.45855C6.18371 8.83979 5.9759 9.07407 5.65189 9.52518C5.3511 10.0185 5.20496 10.3194 4.98711 10.9026C4.95434 10.9135 4.75764 11.8872 4.71104 12.2083Z" fill="#C7EBFF" fill-opacity="0.65" stroke="#013076" stroke-width="0.3" stroke-linecap="round" stroke-linejoin="round"/>
<path d="M5.69719 13.0501L5.69612 13.0447C6.0038 12.8414 6.03288 12.8281 6.3686 12.64C6.6661 12.4442 6.58441 12.4827 6.88191 12.2868L7.383 11.8759L7.9999 11.4263L8.69389 10.8222C9.01088 10.419 9.21496 10.282 9.39254 10.0896L10.1963 9.21771C10.4694 8.78427 10.6068 8.54613 10.8503 8.14022C11.0276 7.77221 11.1509 7.73639 11.1736 7.10798C11.5101 7.16709 11.7225 7.3031 11.908 7.36337C12.2104 7.47685 12.6229 7.60912 12.6567 7.61927C12.7471 7.64642 13.4242 7.92964 13.7404 8.10181C14.0158 8.26537 14.1547 8.38453 14.3941 8.61169C14.691 8.88027 14.7884 8.99454 14.9452 9.18936L15.3504 9.84756L15.6398 10.5445C15.7859 11.0274 15.8044 11.1974 15.8342 11.4953C15.8286 11.8469 15.8153 12.0437 15.8016 12.3951C15.812 12.6587 15.7992 12.8929 15.7825 12.9235C15.7658 12.9541 15.6132 13.5035 15.524 13.7436C15.4348 13.9837 15.1172 14.337 15.0871 14.357C14.8208 14.6319 14.6633 14.7369 14.4247 14.8765C14.1862 15.0161 13.7167 15.0797 13.7167 15.0797C13.7167 15.0797 13.2315 15.2742 12.8627 15.3634C12.3037 15.4859 12.0247 15.4917 11.5124 15.529C11.0486 15.5735 10.7922 15.5766 10.3387 15.5581C9.88193 15.5339 9.63069 15.5297 9.14159 15.4432C8.55933 15.3601 8.21707 15.2775 7.55545 15.014C7.22415 14.8013 7.0493 14.7025 6.7753 14.4423C6.46944 14.1856 6.2927 13.9978 5.97485 13.6411C5.77741 13.4503 5.74838 13.3054 5.69719 13.0501Z" fill="#C7EBFF" fill-opacity="0.65" stroke="#013076" stroke-width="0.3" stroke-linecap="round" stroke-linejoin="round"/>
<path d="M10.2757 12.953L10.4629 12.9169L7.85619 12.2363" stroke="#013076" stroke-width="0.3" stroke-linecap="round" stroke-linejoin="round"/>
<path d="M11.8758 12.9967L11.7508 12.892L14.3755 12.2863" stroke="#013076" stroke-width="0.3" stroke-linecap="round" stroke-linejoin="round"/>
<path d="M4.92223 11.1147C4.94906 11.1573 5.06703 11.4248 5.24518 11.5975C5.42333 11.7702 5.89681 11.621 5.89681 11.621C5.9335 11.6224 6.20092 11.4873 6.34346 11.4294C6.48601 11.3715 6.5596 11.7282 6.5596 11.7282C6.5596 11.7282 6.60408 11.9324 6.63258 12.0633" stroke="#013076" stroke-width="0.3" stroke-linecap="round" stroke-linejoin="round"/>
<path d="M5.35933 10.1009C5.43514 10.0815 5.57312 10.0616 5.64892 9.92318C5.72472 9.78476 5.65969 9.62556 5.65969 9.62556" stroke="#013076" stroke-width="0.3" stroke-linecap="round" stroke-linejoin="round"/>
<path d="M5.7847 10.2021C5.98465 10.2094 6.1364 10.2175 6.27546 10.0769C6.33483 10.0168 6.3954 9.9239 6.41485 9.7816C6.4343 9.6393 6.4257 9.48168 6.4257 9.48168C6.69481 9.5656 6.85379 9.62818 7.10504 9.67787C7.6049 9.69596 8.12939 9.42893 8.12939 9.42893C8.12939 9.42893 8.634 9.136 8.89376 8.85597C8.9451 8.80062 9.1562 8.32204 9.15982 8.22207C9.16343 8.12209 9.11911 7.98075 9.06055 7.80375" stroke="#013076" stroke-width="0.3" stroke-linecap="round" stroke-linejoin="round"/>
<path d="M6.39722 11.4541C6.31286 11.6081 6.25799 11.6905 6.13821 11.8261C6.03929 11.9284 5.96458 11.9897 5.744 12.1169" stroke="#013076" stroke-width="0.3" stroke-linecap="round" stroke-linejoin="round"/>
<path d="M6.38435 10.6242C6.47197 10.6721 6.52407 10.7151 6.60872 10.7468C6.69338 10.7784 6.82295 10.7545 6.82295 10.7545C6.96076 10.7127 7.00868 10.6615 7.08727 10.5639C7.08727 10.5639 7.42123 10.681 7.64116 10.6697C7.99266 10.6516 8.45594 10.2845 8.45594 10.2845" stroke="#013076" stroke-width="0.3" stroke-linecap="round" stroke-linejoin="round"/>
</svg>
