<svg width="16" height="16" viewBox="0 0 16 16" fill="none" xmlns="http://www.w3.org/2000/svg">
<path d="M2.33334 10V5.4C2.33334 4.55992 2.33334 4.13988 2.49683 3.81901C2.64064 3.53677 2.87011 3.3073 3.15236 3.16349C3.47323 3 3.89326 3 4.73334 3H5.30571C5.68143 3 5.86928 3 6.0398 3.05179C6.19076 3.09763 6.33119 3.1728 6.45307 3.27298C6.59073 3.38614 6.69493 3.54245 6.90332 3.85507L7.0967 4.14519C7.30509 4.45782 7.40929 4.61413 7.54695 4.72729C7.66883 4.82747 7.80927 4.90263 7.96022 4.94848C8.13074 5.00027 8.31859 5.00027 8.69431 5.00027H11.0003C11.7365 5.00027 12.3333 5.5971 12.3333 6.33333V6.33333M7.00001 9H11" stroke="#42A5F5" stroke-linecap="round"/>
<path d="M3.84328 11.8038L5.11966 7.97446C5.31636 7.38432 5.41471 7.08925 5.59715 6.8711C5.75825 6.67846 5.96513 6.52934 6.19884 6.43743C6.46349 6.33335 6.77452 6.33336 7.39658 6.33338L11.0036 6.33349C12.1278 6.33353 12.6899 6.33354 13.0589 6.56889C13.3819 6.7749 13.6138 7.09668 13.7071 7.46824C13.8136 7.8927 13.6359 8.42594 13.2804 9.49244L12.8804 10.6925C12.6837 11.2826 12.5853 11.5777 12.4029 11.7958C12.2418 11.9885 12.0349 12.1376 11.8012 12.2295C11.5365 12.3336 11.2255 12.3336 10.6035 12.3335L3.12847 12.3333C3.12173 12.3335 3.11497 12.3336 3.10819 12.3336C3.10135 12.3336 3.09454 12.3335 3.08774 12.3333L3.12847 12.3333C3.45367 12.3249 3.73996 12.1137 3.84328 11.8038Z" fill="#42A5F5"/>
<path d="M3.00001 12.3333L10.6035 12.3335C11.2255 12.3336 11.5365 12.3336 11.8012 12.2295C12.0349 12.1376 12.2418 11.9885 12.4029 11.7958C12.5853 11.5777 12.6837 11.2826 12.8804 10.6925L13.2804 9.49244C13.6359 8.42594 13.8136 7.8927 13.7071 7.46824C13.6138 7.09668 13.3819 6.7749 13.0589 6.56889C12.6899 6.33354 12.1278 6.33353 11.0036 6.33349L7.39658 6.33338C6.77452 6.33336 6.46349 6.33335 6.19884 6.43743C5.96513 6.52934 5.75825 6.67846 5.59715 6.8711C5.41471 7.08925 5.31636 7.38432 5.11966 7.97446L3.84328 11.8038C3.73781 12.1202 3.44171 12.3336 3.10819 12.3336V12.3336C2.68025 12.3336 2.33334 11.9867 2.33334 11.5587V9.66666" stroke="#42A5F5"/>
<path d="M4.71106 11.8635C4.66446 12.2138 4.78928 13.025 4.90132 13.0255C5.02066 13.1447 5.45722 12.9448 5.85737 12.6576L6.45689 12.2601L6.88192 11.9493L7.39781 11.486L7.6764 11.2786L8.32394 10.7269L8.75362 10.2759L9.17005 9.79308L10.2101 8.61729L10.8054 7.48633L11.0029 7.13532L11.1296 6.7659L11.1736 6.29962C11.0632 6.20687 10.9938 6.16194 10.8514 6.09968C10.7337 6.08136 10.4816 6.03828 10.4816 6.03828C10.4816 6.03828 10.2959 6.03095 10.0801 6.06924L9.74906 6.13417L9.28842 6.22519C8.89763 6.36577 8.7242 6.37198 8.46452 6.48907L7.54719 6.98328C7.15684 7.25401 6.94712 7.42097 6.60575 7.77295C6.18372 8.18885 5.97592 8.44443 5.6519 8.93655C5.35112 9.47473 5.20497 9.803 4.98712 10.4392C4.95435 10.4511 4.75766 11.5133 4.71106 11.8635Z" fill="#C7EBFF" fill-opacity="0.65" stroke="#013076" stroke-width="0.3" stroke-linecap="round" stroke-linejoin="round"/>
<path d="M5.69721 12.7819L5.69614 12.7761C6.00381 12.5542 6.03289 12.5398 6.36862 12.3346C6.66611 12.1209 6.58443 12.1629 6.88192 11.9492L7.38302 11.501L7.99992 11.0105L8.69391 10.3515C9.01089 9.91167 9.21498 9.76224 9.39256 9.55225L10.1963 8.60114C10.4694 8.1283 10.6068 7.86851 10.8503 7.4257C11.0276 7.02423 11.1509 6.98515 11.1736 6.29962C11.5101 6.36411 11.7225 6.51247 11.908 6.57822C12.2104 6.70202 12.6229 6.84632 12.6567 6.85739C12.7471 6.88701 13.4242 7.19598 13.7404 7.3838C14.0158 7.56222 14.1547 7.69222 14.3941 7.94003C14.691 8.23303 14.7885 8.35768 14.9452 8.57022L15.3504 9.28825L15.6398 10.0485C15.7859 10.5754 15.8044 10.7608 15.8342 11.0858C15.8286 11.4693 15.8153 11.684 15.8016 12.0674C15.812 12.355 15.7992 12.6105 15.7825 12.6439C15.7658 12.6772 15.6132 13.2766 15.524 13.5385C15.4348 13.8004 15.1172 14.1859 15.0871 14.2077C14.8208 14.5075 14.6633 14.622 14.4248 14.7744C14.1862 14.9267 13.7167 14.996 13.7167 14.996C13.7167 14.996 13.2315 15.2082 12.8627 15.3055C12.3037 15.4391 12.0247 15.4455 11.5124 15.4862C11.0486 15.5347 10.7922 15.5382 10.3387 15.5179C9.88195 15.4915 9.63071 15.4869 9.1416 15.3926C8.55935 15.3019 8.21708 15.2119 7.55546 14.9244C7.22416 14.6923 7.04931 14.5845 6.77531 14.3007C6.46946 14.0207 6.29271 13.8158 5.97487 13.4267C5.77743 13.2185 5.7484 13.0605 5.69721 12.7819Z" fill="#C7EBFF" fill-opacity="0.65" stroke="#013076" stroke-width="0.3" stroke-linecap="round" stroke-linejoin="round"/>
<path d="M10.2756 12.6761L10.4629 12.6366L7.85617 11.8941" stroke="#013076" stroke-width="0.3" stroke-linecap="round" stroke-linejoin="round"/>
<path d="M11.8757 12.7236L11.7508 12.6095L14.3755 11.9487" stroke="#013076" stroke-width="0.3" stroke-linecap="round" stroke-linejoin="round"/>
<path d="M4.92221 10.6706C4.94904 10.717 5.06702 11.0088 5.24517 11.1972C5.42331 11.3856 5.8968 11.223 5.8968 11.223C5.93349 11.2244 6.20091 11.077 6.34345 11.0139C6.48599 10.9508 6.55959 11.3398 6.55959 11.3398C6.55959 11.3398 6.60406 11.5626 6.63256 11.7054" stroke="#013076" stroke-width="0.3" stroke-linecap="round" stroke-linejoin="round"/>
<path d="M5.35935 9.56463C5.43515 9.54347 5.57314 9.52174 5.64893 9.37074C5.72473 9.21973 5.65971 9.04606 5.65971 9.04606" stroke="#013076" stroke-width="0.3" stroke-linecap="round" stroke-linejoin="round"/>
<path d="M5.7847 9.67503C5.98465 9.68292 6.1364 9.69185 6.27546 9.5384C6.33483 9.47287 6.3954 9.37152 6.41485 9.21628C6.4343 9.06104 6.4257 8.8891 6.4257 8.8891C6.69481 8.98065 6.85379 9.04891 7.10504 9.10313C7.6049 9.12286 8.12939 8.83155 8.12939 8.83155C8.12939 8.83155 8.634 8.512 8.89376 8.2065C8.9451 8.14613 9.1562 7.62403 9.15982 7.51497C9.16343 7.40591 9.11911 7.25172 9.06055 7.05863" stroke="#013076" stroke-width="0.3" stroke-linecap="round" stroke-linejoin="round"/>
<path d="M6.39724 11.0409C6.31288 11.2089 6.258 11.2988 6.13822 11.4467C6.0393 11.5583 5.96459 11.6251 5.74402 11.7639" stroke="#013076" stroke-width="0.3" stroke-linecap="round" stroke-linejoin="round"/>
<path d="M6.38436 10.1355C6.47199 10.1877 6.52408 10.2347 6.60874 10.2692C6.6934 10.3037 6.82297 10.2777 6.82297 10.2777C6.96077 10.232 7.00869 10.1762 7.08728 10.0697C7.08728 10.0697 7.42124 10.1975 7.64118 10.1851C7.99267 10.1654 8.45596 9.7649 8.45596 9.7649" stroke="#013076" stroke-width="0.3" stroke-linecap="round" stroke-linejoin="round"/>
</svg>
