<svg width="24" height="22" viewBox="0 0 24 22" fill="none" xmlns="http://www.w3.org/2000/svg">
<path d="M3.5 13.75V6.525C3.5 5.68492 3.5 5.26488 3.66349 4.94401C3.8073 4.66177 4.03677 4.4323 4.31901 4.28849C4.63988 4.125 5.05992 4.125 5.9 4.125H8.52221C8.88047 4.125 9.05959 4.125 9.22353 4.17261C9.36871 4.21477 9.50462 4.28398 9.6241 4.3766C9.75901 4.48119 9.86436 4.62606 10.0751 4.91581L10.9249 6.08456C11.1356 6.3743 11.241 6.51918 11.3759 6.62377C11.4954 6.71639 11.6313 6.7856 11.7765 6.82776C11.9404 6.87537 12.1195 6.87537 12.4778 6.87537H16.667C16.9764 6.87537 17.1311 6.87537 17.2602 6.89811C17.8814 7.00753 18.3678 7.49393 18.4773 8.11518C18.5 8.24428 18.5 8.39896 18.5 8.70833V8.70833M10.5 12.375H16.5" stroke="#42A5F5" stroke-linecap="round"/>
<path d="M5.78153 16.1845L7.92552 10.2882C8.13249 9.71903 8.23598 9.43443 8.41838 9.22451C8.57949 9.03909 8.78368 8.89608 9.01299 8.80803C9.2726 8.70836 9.57543 8.70837 10.1811 8.70838L18.0736 8.70861C19.2264 8.70864 19.8028 8.70866 20.1753 8.95058C20.5013 9.16226 20.7324 9.49221 20.82 9.87093C20.92 10.3038 20.723 10.8454 20.3291 11.9288L19.0745 15.3788C18.8675 15.948 18.764 16.2326 18.5816 16.4425C18.4205 16.628 18.2163 16.771 17.987 16.859C17.7274 16.9587 17.4246 16.9587 16.8189 16.9587L4.70544 16.9583C4.69571 16.9586 4.68595 16.9587 4.67617 16.9587C4.6663 16.9587 4.65646 16.9586 4.64664 16.9583L4.70544 16.9583C5.18812 16.9464 5.61585 16.6401 5.78153 16.1845Z" fill="#42A5F5"/>
<path d="M4.5 16.9583L16.8189 16.9587C17.4246 16.9587 17.7274 16.9587 17.987 16.859C18.2163 16.771 18.4205 16.628 18.5816 16.4425C18.764 16.2326 18.8675 15.948 19.0745 15.3788L20.3291 11.9288C20.723 10.8454 20.92 10.3038 20.82 9.87093C20.7324 9.49221 20.5013 9.16226 20.1753 8.95058C19.8028 8.70866 19.2264 8.70864 18.0736 8.70861L10.1811 8.70838C9.57543 8.70837 9.2726 8.70836 9.01299 8.80803C8.78368 8.89608 8.57949 9.03909 8.41838 9.22451C8.23598 9.43443 8.13249 9.71903 7.92552 10.2882L5.78153 16.1845C5.61251 16.6493 5.17076 16.9587 4.67617 16.9587V16.9587C4.02659 16.9587 3.5 16.4321 3.5 15.7825V13.2917" stroke="#42A5F5"/>
<path d="M7.06659 16.3124C6.99669 16.794 7.18392 17.9093 7.35198 17.9101C7.53099 18.0739 8.18583 17.7991 8.78606 17.4043L9.68533 16.8576L10.3229 16.4302L11.0967 15.7933L11.5146 15.5081L12.4859 14.7495L13.1304 14.1293L13.7551 13.4655L15.3152 11.8488L16.208 10.2937L16.5044 9.81107L16.6943 9.30312L16.7605 8.66198C16.5948 8.53445 16.4908 8.47267 16.277 8.38707C16.1006 8.36187 15.7224 8.30265 15.7224 8.30265C15.7224 8.30265 15.4439 8.29257 15.1202 8.34521L14.6236 8.43449L13.9326 8.55964C13.3465 8.75294 13.0863 8.76147 12.6968 8.92248L11.3208 9.60202C10.7353 9.97427 10.4207 10.2038 9.90862 10.6878C9.27559 11.2597 8.96388 11.6111 8.47785 12.2878C8.02667 13.0278 7.80746 13.4791 7.48069 14.3539C7.43153 14.3703 7.13649 15.8308 7.06659 16.3124Z" fill="#C7EBFF" fill-opacity="0.65" stroke="#013076" stroke-width="0.3" stroke-linecap="round" stroke-linejoin="round"/>
<path d="M8.5458 17.5751L8.54419 17.5671C9.00571 17.262 9.04933 17.2422 9.55291 16.9601C9.99915 16.6663 9.87663 16.724 10.3229 16.4302L11.0745 15.8139L11.9999 15.1395L13.0408 14.2333C13.5163 13.6285 13.8224 13.4231 14.0888 13.1343L15.2945 11.8266C15.7041 11.1764 15.9101 10.8192 16.2754 10.2103C16.5414 9.65832 16.7263 9.60458 16.7604 8.66197C17.2652 8.75064 17.5838 8.95465 17.862 9.04505C18.3156 9.21528 18.9343 9.41368 18.985 9.42891C19.1207 9.46963 20.1363 9.89446 20.6106 10.1527C21.0237 10.398 21.232 10.5768 21.5911 10.9175C22.0365 11.3204 22.1827 11.4918 22.4178 11.784L23.0256 12.7713L23.4597 13.8167C23.6789 14.5411 23.7066 14.7961 23.7513 15.243C23.7429 15.7703 23.7229 16.0655 23.7024 16.5927C23.718 16.9881 23.6987 17.3394 23.6737 17.3853C23.6487 17.4312 23.4198 18.2553 23.286 18.6154C23.1522 18.9756 22.6757 19.5056 22.6306 19.5356C22.2312 19.9478 21.9949 20.1053 21.6371 20.3147C21.2793 20.5242 20.575 20.6195 20.575 20.6195C20.575 20.6195 19.8472 20.9113 19.294 21.0451C18.4555 21.2288 18.037 21.2376 17.2686 21.2935C16.5729 21.3602 16.1883 21.365 15.508 21.3371C14.8229 21.3008 14.446 21.2945 13.7124 21.1648C12.839 21.0402 12.3256 20.9163 11.3332 20.521C10.8362 20.202 10.574 20.0537 10.163 19.6635C9.70417 19.2785 9.43905 18.9967 8.96229 18.4617C8.66613 18.1754 8.62258 17.9582 8.5458 17.5751Z" fill="#C7EBFF" fill-opacity="0.65" stroke="#013076" stroke-width="0.3" stroke-linecap="round" stroke-linejoin="round"/>
<path d="M15.4135 17.4296L15.6943 17.3754L11.7843 16.3544" stroke="#013076" stroke-width="0.3" stroke-linecap="round" stroke-linejoin="round"/>
<path d="M17.8136 17.495L17.6263 17.3381L21.5632 16.4295" stroke="#013076" stroke-width="0.3" stroke-linecap="round" stroke-linejoin="round"/>
<path d="M7.38333 14.6721C7.42358 14.7359 7.60054 15.1372 7.86777 15.3962C8.13499 15.6552 8.84521 15.4316 8.84521 15.4316C8.90025 15.4336 9.30137 15.2309 9.51519 15.1441C9.729 15.0573 9.83939 15.5922 9.83939 15.5922C9.83939 15.5922 9.90611 15.8986 9.94886 16.0949" stroke="#013076" stroke-width="0.3" stroke-linecap="round" stroke-linejoin="round"/>
<path d="M8.03901 13.1514C8.15271 13.1223 8.35969 13.0924 8.47339 12.8848C8.58708 12.6771 8.48954 12.4383 8.48954 12.4383" stroke="#013076" stroke-width="0.3" stroke-linecap="round" stroke-linejoin="round"/>
<path d="M8.67705 13.3032C8.97697 13.314 9.2046 13.3263 9.41319 13.1153C9.50225 13.0252 9.5931 12.8858 9.62227 12.6724C9.65145 12.4589 9.63856 12.2225 9.63856 12.2225C10.0422 12.3484 10.2807 12.4422 10.6576 12.5168C11.4074 12.5439 12.1941 12.1434 12.1941 12.1434C12.1941 12.1434 12.951 11.704 13.3406 11.2839C13.4177 11.2009 13.7343 10.483 13.7397 10.3331C13.7452 10.1831 13.6787 9.97111 13.5908 9.70562" stroke="#013076" stroke-width="0.3" stroke-linecap="round" stroke-linejoin="round"/>
<path d="M9.59584 15.1812C9.4693 15.4122 9.38699 15.5358 9.20732 15.7392C9.05894 15.8926 8.94688 15.9845 8.61601 16.1754" stroke="#013076" stroke-width="0.3" stroke-linecap="round" stroke-linejoin="round"/>
<path d="M9.57655 13.9363C9.70798 14.0081 9.78612 14.0726 9.91311 14.1201C10.0401 14.1676 10.2345 14.1318 10.2345 14.1318C10.4412 14.069 10.513 13.9923 10.6309 13.8458C10.6309 13.8458 11.1319 14.0216 11.4618 14.0046C11.989 13.9774 12.6839 13.4267 12.6839 13.4267" stroke="#013076" stroke-width="0.3" stroke-linecap="round" stroke-linejoin="round"/>
</svg>
