<svg width="24" height="24" viewBox="0 0 24 24" fill="none" xmlns="http://www.w3.org/2000/svg">
<path d="M3 8H17.8C18.9201 8 19.4802 8 19.908 8.21799C20.2843 8.40973 20.5903 8.71569 20.782 9.09202C21 9.51984 21 10.0799 21 11.2V16.8C21 17.9201 21 18.4802 20.782 18.908C20.5903 19.2843 20.2843 19.5903 19.908 19.782C19.4802 20 18.9201 20 17.8 20H6.2C5.07989 20 4.51984 20 4.09202 19.782C3.71569 19.5903 3.40973 19.2843 3.21799 18.908C3 18.4802 3 17.9201 3 16.8V8Z" fill="#42A5F5"/>
<path d="M3 8C3 7.06812 3 6.60218 3.15224 6.23463C3.35523 5.74458 3.74458 5.35523 4.23463 5.15224C4.60218 5 5.06812 5 6 5H8.34315C9.16065 5 9.5694 5 9.93694 5.15224C10.3045 5.30448 10.5935 5.59351 11.1716 6.17157L13 8H3V8Z" fill="#42A5F5"/>
<path d="M9.5 16.5L14.5 11.5M14.5 16.5L9.5 11.5" stroke="#42A5F5"/>
<path d="M7.06657 18.3124C6.99668 18.794 7.1839 19.9093 7.35197 19.9101C7.53097 20.0739 8.18581 19.7991 8.78604 19.4043L9.68532 18.8576L10.3229 18.4302L11.0967 17.7933L11.5146 17.5081L12.4859 16.7495L13.1304 16.1293L13.7551 15.4655L15.3151 13.8488L16.208 12.2937L16.5043 11.8111L16.6943 11.3031L16.7604 10.662C16.5948 10.5345 16.4907 10.4727 16.277 10.3871C16.1006 10.3619 15.7223 10.3026 15.7223 10.3026C15.7223 10.3026 15.4438 10.2926 15.1202 10.3452L14.6236 10.4345L13.9326 10.5596C13.3464 10.7529 13.0863 10.7615 12.6968 10.9225L11.3208 11.602C10.7352 11.9743 10.4207 12.2038 9.9086 12.6878C9.27557 13.2597 8.96386 13.6111 8.47784 14.2878C8.02666 15.0278 7.80744 15.4791 7.48067 16.3539C7.43152 16.3703 7.13647 17.8308 7.06657 18.3124Z" fill="#C7EBFF" fill-opacity="0.65" stroke="#013076" stroke-width="0.3" stroke-linecap="round" stroke-linejoin="round"/>
<path d="M8.5458 19.5751L8.54419 19.5671C9.00571 19.262 9.04933 19.2422 9.55291 18.9601C9.99915 18.6663 9.87663 18.724 10.3229 18.4302L11.0745 17.8139L11.9999 17.1395L13.0408 16.2333C13.5163 15.6286 13.8224 15.4231 14.0888 15.1344L15.2945 13.8266C15.7041 13.1764 15.9101 12.8192 16.2754 12.2103C16.5414 11.6583 16.7263 11.6046 16.7604 10.662C17.2652 10.7506 17.5838 10.9547 17.862 11.0451C18.3156 11.2153 18.9343 11.4137 18.985 11.4289C19.1207 11.4696 20.1363 11.8945 20.6106 12.1527C21.0237 12.3981 21.232 12.5768 21.5911 12.9175C22.0365 13.3204 22.1827 13.4918 22.4178 13.7841L23.0256 14.7713L23.4597 15.8167C23.6789 16.5411 23.7066 16.7961 23.7513 17.243C23.7429 17.7703 23.7229 18.0655 23.7024 18.5927C23.718 18.9881 23.6987 19.3394 23.6737 19.3853C23.6487 19.4312 23.4198 20.2553 23.286 20.6154C23.1522 20.9756 22.6757 21.5056 22.6306 21.5356C22.2312 21.9478 21.9949 22.1053 21.6371 22.3147C21.2793 22.5242 20.575 22.6195 20.575 22.6195C20.575 22.6195 19.8472 22.9113 19.294 23.0451C18.4555 23.2288 18.037 23.2376 17.2686 23.2936C16.5729 23.3603 16.1883 23.365 15.508 23.3371C14.8229 23.3009 14.446 23.2945 13.7124 23.1649C12.839 23.0402 12.3256 22.9163 11.3332 22.521C10.8362 22.202 10.574 22.0537 10.163 21.6635C9.70417 21.2785 9.43905 20.9967 8.96229 20.4617C8.66613 20.1754 8.62258 19.9582 8.5458 19.5751Z" fill="#C7EBFF" fill-opacity="0.65" stroke="#013076" stroke-width="0.3" stroke-linecap="round" stroke-linejoin="round"/>
<path d="M15.4135 19.4296L15.6943 19.3754L11.7843 18.3544" stroke="#013076" stroke-width="0.3" stroke-linecap="round" stroke-linejoin="round"/>
<path d="M17.8136 19.495L17.6263 19.3381L21.5632 18.4295" stroke="#013076" stroke-width="0.3" stroke-linecap="round" stroke-linejoin="round"/>
<path d="M7.38335 16.6721C7.42359 16.7359 7.60056 17.1372 7.86778 17.3962C8.135 17.6552 8.84522 17.4316 8.84522 17.4316C8.90026 17.4336 9.30139 17.2309 9.5152 17.1441C9.72902 17.0573 9.83941 17.5922 9.83941 17.5922C9.83941 17.5922 9.90613 17.8986 9.94888 18.0949" stroke="#013076" stroke-width="0.3" stroke-linecap="round" stroke-linejoin="round"/>
<path d="M8.03901 15.1514C8.15271 15.1223 8.35969 15.0924 8.47339 14.8848C8.58708 14.6771 8.48954 14.4383 8.48954 14.4383" stroke="#013076" stroke-width="0.3" stroke-linecap="round" stroke-linejoin="round"/>
<path d="M8.67705 15.3032C8.97697 15.314 9.2046 15.3263 9.41319 15.1153C9.50225 15.0252 9.5931 14.8858 9.62227 14.6724C9.65145 14.4589 9.63856 14.2225 9.63856 14.2225C10.0422 14.3484 10.2807 14.4423 10.6576 14.5168C11.4074 14.5439 12.1941 14.1434 12.1941 14.1434C12.1941 14.1434 12.951 13.704 13.3406 13.2839C13.4177 13.2009 13.7343 12.4831 13.7397 12.3331C13.7452 12.1831 13.6787 11.9711 13.5908 11.7056" stroke="#013076" stroke-width="0.3" stroke-linecap="round" stroke-linejoin="round"/>
<path d="M9.59584 17.1812C9.4693 17.4122 9.38699 17.5358 9.20732 17.7392C9.05894 17.8926 8.94688 17.9845 8.61601 18.1754" stroke="#013076" stroke-width="0.3" stroke-linecap="round" stroke-linejoin="round"/>
<path d="M9.57653 15.9363C9.70797 16.0081 9.78611 16.0726 9.9131 16.1201C10.0401 16.1676 10.2344 16.1318 10.2344 16.1318C10.4411 16.069 10.513 15.9923 10.6309 15.8458C10.6309 15.8458 11.1319 16.0216 11.4617 16.0046C11.989 15.9774 12.6839 15.4267 12.6839 15.4267" stroke="#013076" stroke-width="0.3" stroke-linecap="round" stroke-linejoin="round"/>
<path d="M7.06657 18.3124C6.99668 18.794 7.1839 19.9093 7.35197 19.9101C7.53097 20.0739 8.18581 19.7991 8.78604 19.4043L9.68532 18.8576L10.3229 18.4302L11.0967 17.7933L11.5146 17.5081L12.4859 16.7495L13.1304 16.1293L13.7551 15.4655L15.3151 13.8488L16.208 12.2937L16.5043 11.8111L16.6943 11.3031L16.7604 10.662C16.5948 10.5345 16.4907 10.4727 16.277 10.3871C16.1006 10.3619 15.7223 10.3026 15.7223 10.3026C15.7223 10.3026 15.4438 10.2926 15.1202 10.3452L14.6236 10.4345L13.9326 10.5596C13.3464 10.7529 13.0863 10.7615 12.6968 10.9225L11.3208 11.602C10.7352 11.9743 10.4207 12.2038 9.9086 12.6878C9.27557 13.2597 8.96386 13.6111 8.47784 14.2878C8.02666 15.0278 7.80744 15.4791 7.48067 16.3539C7.43152 16.3703 7.13647 17.8308 7.06657 18.3124Z" fill="#C7EBFF" fill-opacity="0.65" stroke="#013076" stroke-width="0.3" stroke-linecap="round" stroke-linejoin="round"/>
<path d="M8.5458 19.5751L8.54419 19.5671C9.00571 19.262 9.04933 19.2422 9.55291 18.9601C9.99915 18.6663 9.87663 18.724 10.3229 18.4302L11.0745 17.8139L11.9999 17.1395L13.0408 16.2333C13.5163 15.6286 13.8224 15.4231 14.0888 15.1344L15.2945 13.8266C15.7041 13.1764 15.9101 12.8192 16.2754 12.2103C16.5414 11.6583 16.7263 11.6046 16.7604 10.662C17.2652 10.7506 17.5838 10.9547 17.862 11.0451C18.3156 11.2153 18.9343 11.4137 18.985 11.4289C19.1207 11.4696 20.1363 11.8945 20.6106 12.1527C21.0237 12.3981 21.232 12.5768 21.5911 12.9175C22.0365 13.3204 22.1827 13.4918 22.4178 13.7841L23.0256 14.7713L23.4597 15.8167C23.6789 16.5411 23.7066 16.7961 23.7513 17.243C23.7429 17.7703 23.7229 18.0655 23.7024 18.5927C23.718 18.9881 23.6987 19.3394 23.6737 19.3853C23.6487 19.4312 23.4198 20.2553 23.286 20.6154C23.1522 20.9756 22.6757 21.5056 22.6306 21.5356C22.2312 21.9478 21.9949 22.1053 21.6371 22.3147C21.2793 22.5242 20.575 22.6195 20.575 22.6195C20.575 22.6195 19.8472 22.9113 19.294 23.0451C18.4555 23.2288 18.037 23.2376 17.2686 23.2936C16.5729 23.3603 16.1883 23.365 15.508 23.3371C14.8229 23.3009 14.446 23.2945 13.7124 23.1649C12.839 23.0402 12.3256 22.9163 11.3332 22.521C10.8362 22.202 10.574 22.0537 10.163 21.6635C9.70417 21.2785 9.43905 20.9967 8.96229 20.4617C8.66613 20.1754 8.62258 19.9582 8.5458 19.5751Z" fill="#C7EBFF" fill-opacity="0.65" stroke="#013076" stroke-width="0.3" stroke-linecap="round" stroke-linejoin="round"/>
<path d="M15.4135 19.4296L15.6943 19.3754L11.7843 18.3544" stroke="#013076" stroke-width="0.3" stroke-linecap="round" stroke-linejoin="round"/>
<path d="M17.8136 19.495L17.6263 19.3381L21.5632 18.4295" stroke="#013076" stroke-width="0.3" stroke-linecap="round" stroke-linejoin="round"/>
<path d="M7.38335 16.6721C7.42359 16.7359 7.60056 17.1372 7.86778 17.3962C8.135 17.6552 8.84522 17.4316 8.84522 17.4316C8.90026 17.4336 9.30139 17.2309 9.5152 17.1441C9.72902 17.0573 9.83941 17.5922 9.83941 17.5922C9.83941 17.5922 9.90613 17.8986 9.94888 18.0949" stroke="#013076" stroke-width="0.3" stroke-linecap="round" stroke-linejoin="round"/>
<path d="M8.03901 15.1514C8.15271 15.1223 8.35969 15.0924 8.47339 14.8848C8.58708 14.6771 8.48954 14.4383 8.48954 14.4383" stroke="#013076" stroke-width="0.3" stroke-linecap="round" stroke-linejoin="round"/>
<path d="M8.67705 15.3032C8.97697 15.314 9.2046 15.3263 9.41319 15.1153C9.50225 15.0252 9.5931 14.8858 9.62227 14.6724C9.65145 14.4589 9.63856 14.2225 9.63856 14.2225C10.0422 14.3484 10.2807 14.4423 10.6576 14.5168C11.4074 14.5439 12.1941 14.1434 12.1941 14.1434C12.1941 14.1434 12.951 13.704 13.3406 13.2839C13.4177 13.2009 13.7343 12.4831 13.7397 12.3331C13.7452 12.1831 13.6787 11.9711 13.5908 11.7056" stroke="#013076" stroke-width="0.3" stroke-linecap="round" stroke-linejoin="round"/>
<path d="M9.59584 17.1812C9.4693 17.4122 9.38699 17.5358 9.20732 17.7392C9.05894 17.8926 8.94688 17.9845 8.61601 18.1754" stroke="#013076" stroke-width="0.3" stroke-linecap="round" stroke-linejoin="round"/>
<path d="M9.57653 15.9363C9.70797 16.0081 9.78611 16.0726 9.9131 16.1201C10.0401 16.1676 10.2344 16.1318 10.2344 16.1318C10.4411 16.069 10.513 15.9923 10.6309 15.8458C10.6309 15.8458 11.1319 16.0216 11.4617 16.0046C11.989 15.9774 12.6839 15.4267 12.6839 15.4267" stroke="#013076" stroke-width="0.3" stroke-linecap="round" stroke-linejoin="round"/>
</svg>
